# xmcd
#
# Track frame offsets: 
#        150
#        31527
#        62892
#        93615
#        131692
#        164910
#        201152
#        226255
#
# Disc length: 4082 seconds
#
# Revision: 0
# Processed by: cddbd v1.4PL0 Copyright (c) Steve Scherf et al.
# Submitted via: ExactAudioCopy v0.90b4
#
DISCID=6c0ff008
DTITLE=Black Cat Bone - Bone-ified
DYEAR=1995
DGENRE=Blues
TTITLE0=Cross Road Blues
TTITLE1=Mr. Fiction
TTITLE2=Walking Blues
TTITLE3=Rambling on my Mind
TTITLE4=Misery
TTITLE5=Worried Life Blues
TTITLE6=Mad
TTITLE7=Hey Joe
EXTD=
EXTT0=
EXTT1=
EXTT2=
EXTT3=
EXTT4=
EXTT5=
EXTT6=
EXTT7=
PLAYORDER=
